<?xml version="1.0" encoding="UTF-8"?><svg id="a" xmlns="http://www.w3.org/2000/svg" width="456" height="63.22" viewBox="0 0 456 63.22"><path d="M237.74,.39c-3.54,0-7.08,.45-9.32,2.65-2.24,2.2-3.11,5.51-3.11,9.57s.79,7.31,3,9.51c2.2,2.2,5.87,2.75,9.4,2.75s7.06-.45,9.3-2.65,3.12-5.51,3.12-9.59-.79-7.29-3.02-9.49-5.84-2.75-9.38-2.75Zm5.37,18.07c-1.25,1.42-3.51,1.65-5.37,1.65s-4.11-.25-5.36-1.65-1.31-3.39-1.31-5.85,.08-4.4,1.33-5.8,3.25-1.65,5.36-1.65,4.12,.25,5.36,1.65,1.33,3.33,1.33,5.8-.09,4.43-1.34,5.85ZM188.72,.84h-5.01c-.21,0-.38,.16-.39,.37,0,0,0,0,0,0V24.05c0,.21,.16,.38,.37,.39,0,0,0,0,.01,0h5.01c.21,0,.38-.17,.39-.38V1.21c0-.21-.17-.38-.39-.38v.02Zm-21.05,11.59l8.88-11.01c.13-.15,.11-.38-.05-.51-.07-.06-.15-.08-.24-.08h-6.39c-.15,0-.3,.07-.39,.19l-5.88,7.79-5.73-7.79c-.09-.12-.24-.2-.39-.2h-6.43c-.2,0-.37,.16-.37,.36,0,.09,.03,.17,.08,.24l9,11.22-9.01,11.21c-.13,.15-.11,.38,.05,.51,.07,.06,.15,.08,.24,.08h6.43c.16,0,.3-.08,.4-.2l6.02-7.77,5.69,7.76c.08,.12,.22,.2,.37,.21h6.35c.2,0,.37-.17,.36-.37,0-.08-.03-.16-.08-.22l-8.91-11.41ZM289.61,2.56c-2.04-1.89-5.31-2.13-7.96-2.13-3.42,0-5.61,.73-6.93,1.41h-.92c-1.29-.72-3.57-1.41-7.16-1.41-2.65,0-5.9,.19-7.91,1.87-1.65,1.39-2.04,3.24-2.04,7.05v14.69c0,.21,.18,.38,.39,.38h5.01c.21,0,.38-.17,.39-.38V11.95c0-2.2-.08-4.45,.39-5.3,.37-.66,.94-1.4,3.66-1.4,3.24,0,4.01,.23,4.52,1.65,.13,.46,.2,.94,.21,1.42v15.71c0,.21,.17,.38,.39,.38h5.01c.21,0,.38-.17,.39-.38V8.34c0-.48,.08-.96,.21-1.42,.51-1.43,1.27-1.65,4.52-1.65,2.72,0,3.3,.74,3.66,1.4,.47,.84,.39,3.12,.39,5.3v12.11c0,.21,.18,.38,.39,.38h5.01c.21,0,.38-.17,.39-.38V10.31c0-4.01-.13-6.03-1.98-7.75Zm-71.86,1.4c-2.31-3.19-6.5-4.16-10.84-3.92-2.81,.11-5.59,.6-8.26,1.46-.48,.18-.42,.6-.43,.85,0,.84-.08,3.02-.08,3.91,0,.39,.48,.55,.88,.43,2.24-.82,4.58-1.37,6.95-1.65,2.57-.21,6.06,0,7.03,1.46,.46,.69,.48,1.76,.55,2.84-2.1-.22-4.22-.3-6.34-.22-1.84,.1-5.36,.25-7.43,1.36-1.68,.9-2.68,1.71-3.2,3.23-.41,1.25-.54,2.58-.4,3.89,.31,2.75,1.26,4.09,2.54,5.04,2.02,1.49,4.58,2.29,9.85,2.17,7.02-.15,8.87-2.42,9.8-4.04,1.59-2.75,1.31-7.08,1.26-9.74-.02-1.12-.19-4.77-1.88-7.08Zm-4.58,14.42c-.66,1.39-3.02,1.61-4.4,1.65-2.59,.12-4.49,0-5.73-.59-.88-.48-1.43-1.38-1.47-2.38-.04-.9-.03-1.36,.37-1.89,.91-1.18,3.3-1.44,5.73-1.53,2.01-.02,4.03,.09,6.02,.34-.04,1.81-.15,3.6-.53,4.4ZM304.94,.83h-5.01c-.21,0-.39,.17-.39,.38h0V24.05c0,.21,.18,.38,.39,.38h5.01c.21,0,.39-.17,.39-.38h0V1.21c0-.21-.18-.38-.39-.38,0,0,0,0,0,0Z"/><g><path d="M51.82,37.02v3.79h-10.14v6.35h8.76v3.72h-8.76v6.74h10.43v3.79h-15.04v-24.4h14.76Z"/><path d="M60.87,35.91v25.5h-4.54v-25.5h4.54Z"/><path d="M73.39,43.26c4.64,0,7.8,3.65,7.8,8.87,0,.55-.01,1.1-.07,1.65h-12.03c.29,2.7,2.41,4.54,5.39,4.54,1.87-.09,3.7-.66,5.29-1.65v3.79c-1.89,.89-3.94,1.37-6.03,1.39-5.36,0-9.12-3.9-9.12-9.44s3.69-9.15,8.77-9.15Zm-.18,3.51c-2.2,0-3.9,1.65-4.11,4.08h7.71c-.12-2.42-1.57-4.08-3.6-4.08Z"/><path d="M92.71,43.26c1.85,.02,3.68,.44,5.36,1.23v4.08c-1.34-.93-2.91-1.46-4.54-1.53-3.08,0-5.29,2.24-5.29,5.51s2.2,5.51,5.29,5.51c1.63-.06,3.21-.59,4.54-1.53v4.08c-1.68,.8-3.5,1.22-5.36,1.24-5.36,0-9.11-3.85-9.11-9.29s3.76-9.31,9.11-9.31Z"/><path d="M112.86,43.68v3.66h-5.11v8.19c-.05,1.35,1.01,2.47,2.36,2.52,.08,0,.16,0,.24,0,.88-.04,1.74-.28,2.52-.71v3.76c-1.18,.48-2.45,.74-3.72,.75-3.48,0-5.92-2.38-5.92-5.72v-8.81h-3.05v-3.64h3.05v-5h4.54v5h5.11Z"/><path d="M121.27,43.68v1.77c1.08-1.32,2.66-2.12,4.36-2.2,.5-.01,1.01,.05,1.49,.18v4.05c-.52-.14-1.06-.22-1.6-.21-1.7,.08-3.26,.93-4.26,2.31v11.85h-4.54v-17.74h4.54Z"/><path d="M132.79,36.2c1.38-.05,2.54,1.02,2.59,2.4,0,.06,0,.13,0,.19,0,1.43-1.16,2.59-2.59,2.59-1.43,0-2.58-1.16-2.59-2.59-.07-1.36,.99-2.52,2.35-2.59,.08,0,.16,0,.24,0Zm2.27,7.48v17.74h-4.54v-17.74h4.54Z"/><path d="M147.94,43.26c1.85,.02,3.68,.44,5.35,1.23v4.08c-1.33-.93-2.91-1.46-4.54-1.53-3.09,0-5.29,2.24-5.29,5.51s2.2,5.51,5.29,5.51c1.63-.06,3.2-.59,4.54-1.53v4.08c-1.67,.8-3.5,1.22-5.35,1.24-5.36,0-9.12-3.85-9.12-9.29s3.76-9.31,9.12-9.31Z"/><path d="M178.03,58.12c2.7,0,4.54-1.42,4.54-3.47,0-5-11.85-2.55-11.85-11.01,0-4.18,3.58-7.06,8.73-7.06,2.25,.02,4.48,.48,6.56,1.35v4.22c-1.88-1.17-4.03-1.81-6.24-1.84-2.59,0-4.4,1.32-4.4,3.27,0,4.86,11.85,2.41,11.85,11.01,0,4.29-3.69,7.27-8.87,7.27-2.47-.02-4.9-.58-7.13-1.65v-4.27c2.01,1.37,4.38,2.14,6.82,2.2Z"/><path d="M199.19,43.26c1.85,.02,3.67,.44,5.34,1.23v4.08c-1.33-.93-2.91-1.46-4.54-1.53-3.09,0-5.29,2.24-5.29,5.51s2.2,5.51,5.29,5.51c1.63-.06,3.2-.59,4.54-1.53v4.08c-1.67,.79-3.49,1.21-5.34,1.23-5.35,0-9.11-3.85-9.11-9.29s3.74-9.29,9.11-9.29Z"/><path d="M216.13,43.26c5.35,0,9.11,3.85,9.11,9.29s-3.76,9.29-9.11,9.29-9.16-3.85-9.16-9.29,3.78-9.29,9.16-9.29Zm0,14.79c2.62,0,4.47-2.24,4.47-5.51s-1.84-5.51-4.47-5.51-4.51,2.24-4.51,5.51,1.84,5.51,4.51,5.51Z"/><path d="M236.95,43.26c5.36,0,9.11,3.85,9.11,9.29s-3.76,9.29-9.11,9.29-9.12-3.87-9.12-9.29,3.77-9.29,9.12-9.29Zm0,14.79c2.63,0,4.47-2.24,4.47-5.51s-1.84-5.51-4.47-5.51-4.5,2.24-4.5,5.51,1.84,5.51,4.5,5.51Z"/><path d="M260.4,43.68v3.66h-5.11v8.19c-.05,1.35,1.01,2.47,2.36,2.52,.08,0,.15,0,.23,0,.88-.04,1.75-.28,2.52-.71v3.76c-1.18,.48-2.45,.74-3.73,.75-3.47,0-5.92-2.38-5.92-5.72v-8.81h-3.05v-3.64h3.05v-5h4.54v5h5.11Z"/><path d="M271.53,43.26c4.65,0,7.81,3.65,7.81,8.87,0,.55-.01,1.1-.07,1.65h-12.03c.28,2.7,2.41,4.54,5.39,4.54,1.87-.09,3.7-.66,5.29-1.65v3.79c-1.89,.9-3.96,1.37-6.06,1.39-5.36,0-9.12-3.9-9.12-9.44,.03-5.36,3.72-9.15,8.79-9.15Zm-.18,3.51c-2.2,0-3.9,1.65-4.11,4.08h7.71c-.12-2.42-1.57-4.08-3.6-4.08Z"/><path d="M287.49,43.68v1.77c1.08-1.32,2.66-2.12,4.36-2.2,.5-.01,1.01,.05,1.49,.18v4.05c-.52-.14-1.06-.22-1.6-.21-1.7,.08-3.26,.93-4.26,2.31v11.85h-4.54v-17.74h4.54Z"/><path d="M310.7,55.36v-2.87l11.18-15.47h3.72v14.83h3.62v3.51h-3.62v6.06h-4.4v-6.06h-10.49Zm10.5-11.97l-6.1,8.45h6.1v-8.45Z"/><path d="M418.11,39.05c-.73-1.72-2.17-3.05-3.95-3.64-1.39-.45-2.82-.5-5.24-.5h-51.89c-2.42,0-4.4,.04-5.79,.5-1.78,.59-3.22,1.91-3.95,3.64-.7,1.55-.75,3.55-.75,6.02v7.91c0,2.48,.06,4.48,.75,6.02,.73,1.72,2.17,3.05,3.95,3.63,1.39,.46,3.38,.5,5.79,.5h51.89c2.42,0,3.85-.04,5.24-.5,1.78-.59,3.22-1.91,3.95-3.63,.7-1.55,.75-3.55,.75-6.02v-7.91c.03-2.48-.06-4.48-.75-6.02Zm-1.03,14.32c0,2.14-.08,3.79-.51,4.76-.54,1.32-1.62,2.35-2.97,2.81-1.1,.37-1.74,.44-4.66,.44h-51.94c-2.92,0-4.08-.07-5.21-.44-1.35-.47-2.43-1.49-2.97-2.81-.43-.97-.51-2.62-.51-4.76v-8.66c0-2.14,.08-3.79,.51-4.76,.54-1.32,1.62-2.35,2.97-2.82,1.1-.36,2.29-.43,5.21-.43h51.94c2.92,0,3.53,.07,4.66,.43,1.35,.47,2.44,1.49,2.97,2.82,.43,.97,.51,2.62,.51,4.76v8.66Z"/><path d="M408.92,63.21h-51.89c-2.33,0-4.4-.04-5.81-.5-1.8-.59-3.26-1.93-4-3.68-.7-1.55-.76-3.57-.76-6.06v-7.91c0-2.48,.06-4.5,.76-6.06,.74-1.75,2.2-3.09,4-3.68,1.42-.46,3.47-.5,5.81-.5h51.89c2.34,0,3.85,.04,5.26,.5,1.8,.59,3.26,1.93,4,3.68h0c.7,1.55,.76,3.57,.76,6.06v7.91c0,2.48-.06,4.5-.76,6.06-.74,1.75-2.2,3.09-4,3.68-1.43,.46-2.93,.5-5.26,.5Zm-51.89-28.23c-2.33,0-4.37,.04-5.77,.5-1.76,.58-3.19,1.89-3.91,3.6-.69,1.53-.74,3.54-.74,6v7.91c0,2.46,.06,4.47,.74,5.99,.73,1.71,2.15,3.02,3.91,3.6,1.41,.46,3.45,.5,5.77,.5h51.34c2.32,0,4.36-.04,5.77-.5,1.76-.58,3.19-1.89,3.91-3.6,.69-1.53,.74-3.53,.74-5.99v-7.91c0-2.47-.06-4.47-.74-6-.72-1.71-2.15-3.02-3.91-3.6-1.4-.46-3.44-.5-5.77-.5h-51.34Zm51.91,26.43h-51.94c-2.85,0-4.07-.07-5.23-.44-1.37-.48-2.47-1.52-3.02-2.86-.42-.96-.51-2.61-.51-4.78v-8.63c0-2.24,.08-3.82,.51-4.78,.55-1.34,1.65-2.38,3.02-2.86,1.16-.37,2.38-.44,5.23-.44h51.94c2.86,0,3.53,.07,4.69,.44,1.37,.47,2.47,1.52,3.02,2.86,.43,.97,.51,2.55,.51,4.78v8.65c0,2.17-.09,3.82-.51,4.78-.55,1.35-1.65,2.39-3.02,2.87-1.16,.36-1.82,.42-4.69,.42v-.02Zm-51.94-24.63c-2.84,0-4.05,.07-5.19,.43-1.33,.46-2.39,1.46-2.93,2.75-.42,.95-.5,2.57-.5,4.73v8.65c0,2.16,.08,3.78,.5,4.73,.54,1.29,1.6,2.3,2.93,2.75,1.14,.37,2.35,.43,5.19,.43h51.39c2.84,0,4.05-.07,5.19-.43,1.33-.46,2.39-1.46,2.93-2.75,.42-.95,.5-2.57,.5-4.73v-8.65c0-2.16-.08-3.78-.5-4.73-.54-1.29-1.6-2.3-2.93-2.75-1.14-.37-2.35-.43-5.19-.43h-51.39Z"/><path d="M364.53,56.95c-3.9,0-6.61-2.53-6.61-6.06v-9.75h2.93v9.53c-.08,2.04,1.51,3.76,3.55,3.83,2.04,.08,3.76-1.51,3.83-3.55,0-.1,0-.19,0-.29v-9.53h2.96v9.73c-.03,3.52-2.78,6.07-6.67,6.07Z"/><path d="M377.56,40.45v16.23h-2.89v-16.23h2.89Z"/><path d="M387.62,45.39v2.33h-3.25v5.21c-.03,.86,.64,1.58,1.5,1.6,.05,0,.1,0,.15,0,.56-.03,1.11-.18,1.6-.45v2.39c-.75,.31-1.56,.47-2.37,.48-1.96,.12-3.65-1.38-3.77-3.34,0-.1,0-.21,0-.31v-5.58h-1.94v-2.33h1.94v-3.18h2.89v3.18h3.25Z"/><path d="M392.97,45.39v1.13c.69-.84,1.71-1.35,2.79-1.4,.32,0,.64,.03,.95,.12v2.56c-.33-.09-.67-.14-1.02-.14-1.08,.05-2.08,.6-2.71,1.47v7.55h-2.89v-11.29h2.88Z"/><path d="M401.33,56.95c-2.1,0-3.59-1.38-3.59-3.36,0-2.35,2.2-3.98,5.44-3.98,.45,0,.9,0,1.4,.04v-.52c0-1.06-.86-1.78-2.13-1.78-1.32,.04-2.61,.42-3.74,1.1v-2.41c1.28-.6,2.67-.92,4.09-.93,2.75,0,4.54,1.72,4.54,4.15v7.41h-2.75v-.9c-.92,.75-2.07,1.16-3.25,1.18Zm.95-2.24c.88-.05,1.71-.44,2.31-1.1v-2.2c-.42-.05-.84-.07-1.27-.07-1.65,0-2.75,.77-2.75,1.85,.01,.86,.72,1.54,1.58,1.53,.05,0,.09,0,.14,0h0Z"/></g></svg>