<?xml version="1.0" encoding="UTF-8"?><svg id="b" xmlns="http://www.w3.org/2000/svg" viewBox="0 0 595.2 26.39"><g id="c"><path d="m70.09,4.14C67.67.8,63.3-.21,58.77.03c-4.6.25-7.8,1.22-8.62,1.53-.51.19-.44.63-.45.89-.02.88-.09,3.16-.08,4.09,0,.41.5.6.92.45,1.68-.6,4.77-1.54,7.26-1.75,2.68-.22,6.33,0,7.34,1.53.48.73.51,1.84.56,2.97-1.68-.15-4.16-.36-6.62-.23-1.92.1-5.6.26-7.76,1.42-1.76.94-2.8,1.79-3.34,3.38-.44,1.28-.56,2.82-.42,4.07.32,2.86,1.31,4.28,2.65,5.27,2.11,1.57,4.78,2.39,10.29,2.27,7.34-.16,9.27-2.54,10.24-4.22,1.66-2.87,1.37-7.41,1.32-10.19-.02-1.15-.19-4.95-1.96-7.39Zm-9.41,16.83c-2.7.12-4.7.01-5.98-.62-.85-.42-1.48-1.39-1.54-2.49-.05-.94-.03-1.42.39-1.97.95-1.24,3.43-1.51,5.99-1.6,1.72-.07,4.36.13,6.29.36-.02,1.87-.14,3.75-.53,4.58-.69,1.46-3.16,1.69-4.63,1.75Z" style="fill:#231815;"/><path d="m90.97.4c-3.7,0-7.4.47-9.74,2.77-2.34,2.3-3.24,5.77-3.24,10.01s.81,7.65,3.15,9.95c2.34,2.3,6.14,2.86,9.83,2.86s7.38-.47,9.72-2.78c2.34-2.3,3.26-5.79,3.26-10.03s-.82-7.63-3.16-9.93c-2.34-2.3-6.12-2.85-9.82-2.85Zm5.61,18.91c-1.3,1.49-3.66,1.75-5.61,1.75s-4.3-.26-5.6-1.75c-1.3-1.49-1.39-3.54-1.39-6.13s.09-4.58,1.39-6.07c1.3-1.49,3.39-1.75,5.61-1.75s4.3.26,5.61,1.75c1.3,1.49,1.39,3.49,1.39,6.07s-.08,4.63-1.39,6.12Z" style="fill:#231815;"/><path d="m161.19.86h-5.23c-.22,0-.41.18-.41.4v23.91c0,.22.18.4.41.4h5.23c.22,0,.41-.18.41-.4V1.26c0-.22-.18-.4-.41-.4Z" style="fill:#231815;"/><path d="m145.18,2.67c-2.13-1.98-5.55-2.23-8.32-2.23-3.58,0-5.86.76-7.24,1.48h-.96c-1.35-.75-3.73-1.48-7.48-1.48-2.77,0-6.17.2-8.26,1.96-1.73,1.46-2.13,3.39-2.13,7.37v15.37c0,.22.18.4.41.4h5.23c.22,0,.41-.18.41-.4v-.05s0-9.72,0-12.59c0-2.28-.09-4.66.4-5.55.38-.69.98-1.46,3.82-1.46,3.39,0,4.19.24,4.72,1.74.13.35.19.86.22,1.48v16.44c0,.22.18.4.41.4h5.23c.22,0,.41-.18.41-.4V8.72c.03-.62.09-1.12.22-1.48.53-1.5,1.33-1.74,4.72-1.74,2.84,0,3.44.77,3.82,1.46.49.89.4,3.26.4,5.55,0,2.88,0,12.59,0,12.59v.05c0,.22.18.4.41.4h5.23c.22,0,.41-.18.41-.4v-14.43c0-4.13-.13-6.25-2.07-8.05Z" style="fill:#231815;"/><path d="m39.75.86h-5.23c-.22,0-.41.18-.41.4v23.91c0,.22.18.4.41.4h5.23c.22,0,.41-.18.41-.4V1.26c0-.22-.18-.4-.41-.4Z" style="fill:#231815;"/><path d="m17.76,13.01L27.06,1.48c.2-.25.02-.62-.3-.62h-6.7c-.16,0-.31.08-.41.2l-6.14,8.15L7.52,1.07c-.1-.13-.25-.21-.41-.21H.39C.07.86-.11,1.23.09,1.48l9.41,11.74L.08,24.95c-.19.25-.01.62.3.62h6.72c.16,0,.32-.08.41-.21l6.27-8.13,5.94,8.13c.1.13.25.21.41.21h6.64c.32,0,.5-.37.3-.62l-9.32-11.94Z" style="fill:#231815;"/><path d="m191.86.76c7.09,0,12.09,5.33,12.09,12.81s-5,12.81-12.09,12.81-12.09-5.33-12.09-12.81,5-12.81,12.09-12.81Zm0,21.67c4.28,0,7.24-3.67,7.24-8.86s-2.95-8.85-7.24-8.85-7.23,3.67-7.23,8.85,2.95,8.86,7.23,8.86Z"/><path d="m219.51,25.96v-1.58c-1.62,1.33-3.42,2.02-5.22,2.02-3.78,0-6.41-2.7-6.41-6.48V7.96h4.61v11.12c0,1.87,1.3,3.28,3.17,3.28,1.37,0,2.66-.68,3.85-1.91V7.96h4.64v18h-4.64Z"/><path d="m240.18,7.96v3.71h-5.18v8.31c0,1.48,1.04,2.56,2.63,2.56.76,0,1.62-.25,2.56-.72v3.82c-1.3.5-2.56.76-3.78.76-3.53,0-6.01-2.41-6.01-5.79v-8.93h-3.1v-3.71h3.1V2.89h4.61v5.08h5.18Z"/><path d="m255.3,25.96v-1.26c-1.4,1.12-2.99,1.69-4.57,1.69-4.79,0-8.13-3.89-8.13-9.43s3.35-9.43,8.13-9.43c1.58,0,3.17.58,4.57,1.66V.08h4.64v25.88h-4.64Zm-3.56-3.53c1.26,0,2.52-.54,3.56-1.62v-7.7c-1.04-1.08-2.3-1.62-3.56-1.62-2.63,0-4.43,2.23-4.43,5.47s1.8,5.47,4.43,5.47Z"/><path d="m273.01,7.53c5.44,0,9.25,3.89,9.25,9.43s-3.82,9.43-9.25,9.43-9.29-3.92-9.29-9.43,3.85-9.43,9.29-9.43Zm0,15.01c2.66,0,4.54-2.27,4.54-5.58s-1.87-5.58-4.54-5.58-4.57,2.27-4.57,5.58,1.87,5.58,4.57,5.58Z"/><path d="m294.14,7.53c5.44,0,9.25,3.89,9.25,9.43s-3.82,9.43-9.25,9.43-9.29-3.92-9.29-9.43,3.85-9.43,9.29-9.43Zm0,15.01c2.66,0,4.54-2.27,4.54-5.58s-1.87-5.58-4.54-5.58-4.57,2.27-4.57,5.58,1.87,5.58,4.57,5.58Z"/><path d="m311.82,7.96v1.8c1.3-1.44,2.88-2.23,4.43-2.23.5,0,1.01.04,1.51.18v4.1c-.5-.14-1.08-.22-1.62-.22-1.51,0-3.13.83-4.32,2.34v12.02h-4.61V7.96h4.61Z"/><path d="m348.87.76c2.41,0,4.82.61,7.13,1.8v4.25c-2.12-1.33-4.32-2.09-6.33-2.09-4.79,0-8.1,3.64-8.1,8.85s3.31,8.86,8.1,8.86c2.02,0,4.21-.76,6.33-2.09v4.25c-2.3,1.19-4.71,1.8-7.13,1.8-7.13,0-12.17-5.33-12.17-12.81s5.04-12.81,12.17-12.81Z"/><path d="m364.67,26.39c-3.35,0-5.72-2.2-5.72-5.36,0-3.74,3.53-6.33,8.67-6.33.72,0,1.44.04,2.23.07v-.83c0-1.69-1.37-2.84-3.38-2.84-1.87,0-3.92.58-5.98,1.73v-3.82c2.2-1.01,4.39-1.48,6.51-1.48,4.39,0,7.24,2.74,7.24,6.62v11.81h-4.39v-1.44c-1.58,1.22-3.35,1.87-5.18,1.87Zm1.51-3.56c1.26,0,2.56-.65,3.67-1.76v-3.53c-.65-.07-1.3-.11-2.02-.11-2.59,0-4.36,1.22-4.36,2.95,0,1.44,1.12,2.45,2.7,2.45Z"/><path d="m383.75,7.96v1.44c1.58-1.3,3.31-1.87,5.11-1.87,2.16,0,3.96.94,5.08,2.7,1.8-1.8,3.85-2.7,5.98-2.7,3.56,0,5.98,2.59,5.98,6.3v12.13h-4.61v-11.41c0-1.73-1.15-2.99-2.81-2.99-1.19,0-2.48.61-3.64,1.84v12.56h-4.61v-11.41c0-1.73-1.19-2.99-2.84-2.99-1.19,0-2.48.61-3.64,1.84v12.56h-4.61V7.96h4.61Z"/><path d="m418.45,7.53c4.72,0,7.92,3.71,7.92,9,0,.5,0,1.08-.07,1.69h-12.2c.29,2.74,2.45,4.61,5.47,4.61,1.66,0,3.49-.61,5.36-1.69v3.85c-2.05.94-4.1,1.4-6.12,1.4-5.44,0-9.25-3.96-9.25-9.57s3.74-9.29,8.89-9.29Zm-.18,3.56c-2.23,0-3.96,1.66-4.18,4.14h7.85c-.14-2.45-1.62-4.14-3.67-4.14Z"/><path d="m434.65,7.96v1.8c1.3-1.44,2.88-2.23,4.43-2.23.5,0,1.01.04,1.51.18v4.1c-.5-.14-1.08-.22-1.62-.22-1.51,0-3.13.83-4.32,2.34v12.02h-4.61V7.96h4.61Z"/><path d="m447.98,26.39c-3.35,0-5.72-2.2-5.72-5.36,0-3.74,3.53-6.33,8.67-6.33.72,0,1.44.04,2.23.07v-.83c0-1.69-1.37-2.84-3.38-2.84-1.87,0-3.92.58-5.98,1.73v-3.82c2.2-1.01,4.39-1.48,6.51-1.48,4.39,0,7.24,2.74,7.24,6.62v11.81h-4.39v-1.44c-1.58,1.22-3.35,1.87-5.18,1.87Zm1.51-3.56c1.26,0,2.56-.65,3.67-1.76v-3.53c-.65-.07-1.3-.11-2.02-.11-2.59,0-4.36,1.22-4.36,2.95,0,1.44,1.12,2.45,2.7,2.45Z"/><path d="m488.68.76c2.41,0,4.82.61,7.13,1.8v4.25c-2.12-1.33-4.32-2.09-6.33-2.09-4.79,0-8.1,3.64-8.1,8.85s3.31,8.86,8.1,8.86c2.02,0,4.21-.76,6.33-2.09v4.25c-2.3,1.19-4.71,1.8-7.13,1.8-7.13,0-12.17-5.33-12.17-12.81s5.04-12.81,12.17-12.81Z"/><path d="m522.19,25.96l-5.87-18.75-5.83,18.75h-4.25l-8.46-24.76h4.71l5.87,18.75,5.87-18.75h4.25l5.83,18.75,5.83-18.75h4.75l-8.46,24.76h-4.25Z"/><path d="m535.87,19.81v-2.92l11.34-15.69h3.78v15.05h3.67v3.56h-3.67v6.16h-4.46v-6.16h-10.66Zm10.66-12.17l-6.19,8.6h6.19V7.64Z"/><path d="m565.64.76c5.51,0,9.29,5.26,9.29,12.81s-3.78,12.81-9.29,12.81-9.32-5.25-9.32-12.81,3.78-12.81,9.32-12.81Zm0,21.67c2.81,0,4.64-3.49,4.64-8.86s-1.84-8.85-4.64-8.85-4.68,3.46-4.68,8.85,1.83,8.86,4.68,8.86Z"/><path d="m585.91.76c5.51,0,9.29,5.26,9.29,12.81s-3.78,12.81-9.29,12.81-9.32-5.25-9.32-12.81,3.78-12.81,9.32-12.81Zm0,21.67c2.81,0,4.64-3.49,4.64-8.86s-1.84-8.85-4.64-8.85-4.68,3.46-4.68,8.85,1.83,8.86,4.68,8.86Z"/></g></svg>