<?xml version="1.0" encoding="UTF-8"?><svg id="a" xmlns="http://www.w3.org/2000/svg" width="456" height="52.79" viewBox="0 0 456 52.79"><g><path d="M109.7,1.03c-2.62,0-5.26,.33-6.92,1.97-1.66,1.64-2.3,4.09-2.3,7.1s.58,5.43,2.22,7.07,4.36,2.04,6.98,2.04,5.24-.34,6.91-1.97,2.32-4.09,2.32-7.12-.58-5.41-2.24-7.04-4.35-2.04-6.98-2.04m3.99,13.41c-.92,1.06-2.6,1.23-3.99,1.23s-3.05-.18-3.98-1.23-.96-2.51-.96-4.35,.06-3.25,.99-4.31,2.41-1.23,3.98-1.23,3.06,.18,3.99,1.23,.98,2.48,.98,4.31-.06,3.27-.98,4.34M73.31,1.35h-3.72c-.16,0-.28,.12-.29,.28,0,0,0,0,0,0V18.6c0,.16,.13,.28,.29,.28,0,0,0,0,0,0h3.72c.15,0,.28-.12,.29-.28V1.64c0-.16-.13-.28-.29-.28m-15.63,8.62l6.59-8.18c.09-.11,.08-.29-.04-.38-.05-.04-.11-.06-.18-.06h-4.75c-.11,0-.22,.05-.29,.14l-4.37,5.78-4.26-5.78c-.07-.09-.18-.15-.29-.15h-4.78c-.15,0-.27,.12-.27,.27,0,.06,.02,.13,.06,.18l6.68,8.33-6.69,8.32c-.09,.12-.07,.29,.04,.38,.05,.04,.11,.06,.17,.06h4.77c.12,0,.22-.05,.29-.15l4.47-5.76,4.22,5.76c.07,.09,.18,.15,.29,.15h4.7c.15,0,.27-.12,.27-.27,0-.06-.02-.12-.06-.17l-6.62-8.47ZM148.22,2.64c-1.51-1.41-3.95-1.58-5.91-1.58-2.54,0-4.16,.54-5.14,1.05h-.68c-.96-.53-2.65-1.05-5.31-1.05-1.97,0-4.38,.15-5.87,1.39-1.23,1.03-1.52,2.41-1.52,5.23v10.9c0,.16,.13,.28,.29,.28,0,0,0,0,0,0h3.72c.16,0,.29-.12,.29-.28h0V9.62c0-1.64-.06-3.31,.29-3.94,.27-.49,.7-1.03,2.72-1.03,2.41,0,2.98,.17,3.36,1.23,.1,.35,.15,.71,.16,1.08v11.64c0,.16,.13,.28,.28,.28,0,0,0,0,0,0h3.72c.16,0,.28-.13,.29-.28V6.95c0-.35,.06-.71,.16-1.05,.38-1.07,.94-1.23,3.36-1.23,2.02,0,2.45,.55,2.71,1.03,.35,.63,.29,2.32,.29,3.94v8.94c0,.16,.13,.28,.29,.28,0,0,0,0,0,0h3.72c.16,0,.28-.13,.29-.28V8.37c0-2.93-.09-4.43-1.47-5.72m-53.36,1.03c-1.72-2.37-4.82-3.09-8.05-2.91-2.08,.08-4.15,.45-6.13,1.09-.36,.14-.31,.45-.32,.64,0,.63-.06,2.24-.06,2.9,0,.29,.36,.41,.65,.32,1.67-.61,3.4-1.02,5.16-1.23,1.91-.16,4.5,0,5.22,1.08,.34,.52,.36,1.3,.41,2.11-1.56-.17-3.14-.22-4.71-.16-1.37,.07-3.98,.19-5.52,1.01-1.25,.67-1.99,1.27-2.38,2.4-.3,.93-.4,1.91-.3,2.89,.23,2.04,.93,3.04,1.88,3.74,1.5,1.11,3.4,1.7,7.31,1.64,5.21-.11,6.58-1.8,7.27-3,1.18-2.04,.98-5.26,.94-7.23,0-.82-.14-3.51-1.39-5.24m-3.4,10.7c-.49,1.03-2.24,1.2-3.27,1.23-1.92,.09-3.34,0-4.25-.44-.65-.35-1.07-1.03-1.09-1.77-.04-.66-.02-1.01,.28-1.4,.67-.88,2.45-1.07,4.25-1.14,1.49-.01,2.99,.07,4.47,.26,0,1.33-.1,2.66-.38,3.25M159.6,1.35h-3.72c-.16,0-.29,.12-.29,.28h0V18.6c0,.16,.13,.28,.29,.28h3.72c.16,0,.29-.12,.29-.28V1.64c0-.16-.13-.28-.29-.28h0"/><path d="M172.87,3.71V.89h14.46V3.71h-5.5v15.31h-3.45V3.71h-5.51Z"/><path d="M191.53,5.84v1.32c.8-.98,1.98-1.57,3.24-1.64,.37,0,.75,.04,1.11,.13v3c-.39-.11-.78-.16-1.19-.16-1.26,.07-2.42,.7-3.16,1.72v8.8h-3.38V5.84h3.38Z"/><path d="M206.82,19.02v-1.16c-1.06,.93-2.41,1.45-3.82,1.48-2.76,0-4.69-1.98-4.69-4.74V5.84h3.37V13.99c-.07,1.26,.89,2.33,2.15,2.4,.06,0,.11,0,.17,0,1,0,1.95-.5,2.82-1.4V5.84h3.41v13.18h-3.41Z"/><path d="M219.76,5.53c1.38,.02,2.73,.33,3.98,.92v3.03c-.99-.7-2.16-1.09-3.37-1.13-2.29,0-3.93,1.66-3.93,4.09s1.64,4.09,3.93,4.09c1.21-.05,2.38-.44,3.37-1.13v3c-1.24,.59-2.6,.91-3.98,.92-3.98,0-6.77-2.86-6.77-6.91s2.79-6.89,6.77-6.89Z"/><path d="M230.04,.07V19.02h-3.37V.07h3.37Z"/><path d="M239.34,5.53c3.45,0,5.8,2.71,5.8,6.59,0,.41-.01,.82-.05,1.23h-8.94c.21,2,1.79,3.37,4.01,3.37,1.39-.06,2.75-.49,3.93-1.23v2.82c-1.41,.66-2.94,1.01-4.5,1.03-3.98,0-6.77-2.9-6.77-7.01,.02-3.98,2.76-6.8,6.53-6.8Zm-.13,2.61c-1.64,0-2.9,1.23-3.06,3.03h5.75c-.11-1.79-1.19-3.03-2.69-3.03Z"/><path d="M251.11,19.34c-2.45,0-4.19-1.61-4.19-3.93,0-2.74,2.58-4.64,6.35-4.64,.53,0,1.05,.02,1.64,.05v-.61c0-1.23-1-2.08-2.45-2.08-1.55,.04-3.06,.47-4.39,1.26v-2.8c1.49-.7,3.12-1.07,4.77-1.08,3.22,0,5.31,2,5.31,4.85v8.65h-3.22v-1.03c-1.08,.87-2.43,1.35-3.82,1.35Zm1.11-2.61c1.03-.06,2-.52,2.69-1.29v-2.58c-.49-.05-.98-.08-1.48-.08-1.9,0-3.19,.9-3.19,2.16,.01,1.05,.83,1.79,1.99,1.79h-.01Z"/><path d="M265.09,5.84v1.13c1.08-.91,2.44-1.42,3.85-1.45,2.74,0,4.69,1.95,4.69,4.74v8.75h-3.4V10.87c.07-1.25-.87-2.32-2.12-2.39-.07,0-.13,0-.2,0-1.09,.05-2.12,.56-2.82,1.4v9.15h-3.35V5.84h3.35Z"/><path d="M304.64,19.02l-4.3-13.73-4.26,13.73h-3.11l-6.2-18.14h3.45l4.3,13.73,4.3-13.73h3.11l4.27,13.73,4.27-13.73h3.48l-6.19,18.14h-3.11Z"/><path d="M316.24,7.06V3.95l5.6-3.06h2.29V19.02h-3.45V4.6l-4.44,2.45Z"/><path d="M333.28,.57c4.03,0,6.8,3.85,6.8,9.4s-2.76,9.36-6.8,9.36-6.83-3.85-6.83-9.38,2.77-9.38,6.83-9.38Zm0,15.87c2.04,0,3.4-2.56,3.4-6.48s-1.36-6.48-3.4-6.48-3.43,2.53-3.43,6.48,1.35,6.48,3.43,6.48Z"/><path d="M360.5,19.44c-4.6,0-7.82-2.98-7.82-7.15V.82h3.45V12.05c0,2.61,1.84,4.47,4.36,4.47s4.34-1.86,4.34-4.47V.82h3.48V12.26c0,4.2-3.24,7.18-7.82,7.18Z"/><path d="M375.86,0V19.13h-3.41V0h3.41Z"/><path d="M387.72,5.83v2.76h-3.83v6.13c-.03,1.01,.76,1.86,1.77,1.89,.06,0,.11,0,.17,0,.66-.03,1.31-.21,1.89-.53v2.82c-.89,.36-1.84,.55-2.79,.56-2.61,0-4.44-1.78-4.44-4.28v-6.59h-2.29v-2.74h2.29V2.08h3.41v3.75h3.83Z"/><path d="M394.02,5.83v1.33c.81-.98,2-1.58,3.27-1.64,.38,0,.75,.04,1.12,.13v3.03c-.39-.11-.79-.16-1.2-.16-1.27,.06-2.45,.7-3.19,1.73v8.87h-3.41V5.83h3.41Z"/><path d="M403.87,19.44c-2.45,0-4.23-1.64-4.23-3.96,0-2.77,2.61-4.68,6.41-4.68,.53,0,1.06,.02,1.64,.05v-.61c0-1.25-1.01-2.1-2.5-2.1-1.55,.04-3.07,.48-4.4,1.26v-2.8c1.51-.71,3.15-1.08,4.81-1.09,3.25,0,5.35,2.02,5.35,4.91v8.71h-3.25v-1.06c-1.08,.88-2.43,1.36-3.83,1.38Zm1.12-2.63c1.04-.06,2.01-.53,2.71-1.3v-2.6c-.49-.06-.99-.08-1.49-.08-1.91,0-3.22,.9-3.22,2.18,0,1.06,.83,1.81,2,1.81Z"/></g><g><path d="M191.83,28.5c5.27,0,9.03,3.83,9.03,9.21s-3.75,9.22-9.03,9.22h-6.65V28.5h6.65Zm-.19,15.56c3.32,0,5.63-2.6,5.63-6.35s-2.31-6.35-5.63-6.35h-3v12.69h3Z"/><path d="M207.33,33.54v1.34c.81-.99,2-1.59,3.27-1.66,.38,0,.76,.03,1.13,.13v3.05c-.4-.11-.81-.16-1.23-.16-1.28,.06-2.46,.7-3.21,1.74v8.95h-3.43v-13.39h3.47Z"/><path d="M215.61,52.79l2.57-6.35-5.11-12.91h3.51l3.21,8.79,3.24-8.79h3.51l-7.6,19.26h-3.32Z"/><path d="M139.33,46.98l-4.35-13.9-4.33,13.9h-3.15l-6.28-18.37h3.5l4.35,13.9,4.35-13.9h3.15l4.33,13.9,4.33-13.9h3.52l-6.28,18.37h-3.15Z"/><path d="M155.28,33.31c3.5,0,5.87,2.75,5.87,6.68,0,.42-.01,.84-.05,1.26h-9.04c.22,2.04,1.82,3.42,4.06,3.42,1.41-.07,2.79-.5,3.98-1.26v2.86c-1.42,.67-2.97,1.03-4.54,1.04-4.03,0-6.86-2.94-6.86-7.1-.02-4.04,2.76-6.9,6.58-6.9Zm-.13,2.65c-1.64,0-2.94,1.23-3.1,3.07h5.82c-.11-1.83-1.2-3.05-2.72-3.05v-.02Z"/><path d="M172.05,33.63v2.75h-3.85v6.17c-.03,1.02,.76,1.87,1.78,1.9,.06,0,.11,0,.17,0,.66-.03,1.31-.22,1.9-.54v2.83c-.89,.36-1.84,.55-2.8,.56-2.62,0-4.46-1.79-4.46-4.3v-6.62h-2.3v-2.75h2.3v-3.77h3.42v3.77h3.85Z"/><path d="M246.79,46.57l-7.14-18.13h3.53l5.09,13.39,5.06-13.39h3.56l-7.14,18.13h-2.95Z"/><path d="M260.87,46.88c-2.45,0-4.19-1.61-4.19-3.92,0-2.74,2.58-4.64,6.35-4.64,.53,0,1.05,.03,1.64,.05v-.61c0-1.23-1-2.09-2.48-2.09-1.54,.04-3.05,.48-4.37,1.27v-2.79c1.49-.7,3.12-1.07,4.77-1.08,3.21,0,5.31,2,5.31,4.85v8.64h-3.22v-1.05c-1.08,.87-2.42,1.36-3.81,1.37Zm1.11-2.61c1.03-.06,2-.52,2.69-1.29v-2.58c-.49-.05-.98-.08-1.48-.08-1.9,0-3.19,.9-3.19,2.16,0,1.05,.81,1.79,1.98,1.79Z"/><path d="M277.34,33.07c1.38,.02,2.74,.33,3.98,.92v3.03c-.99-.69-2.17-1.09-3.38-1.13-2.29,0-3.92,1.66-3.92,4.09s1.64,4.09,3.92,4.09c1.21-.05,2.38-.44,3.38-1.14v3.03c-1.25,.59-2.6,.9-3.98,.92-3.98,0-6.77-2.86-6.77-6.91s2.8-6.91,6.77-6.91Z"/><path d="M292.66,46.57v-1.16c-1.06,.92-2.41,1.45-3.82,1.48-2.77,0-4.69-1.97-4.69-4.74v-8.75h3.38v8.14c-.07,1.26,.9,2.33,2.16,2.39,.05,0,.11,0,.16,0,1,0,1.95-.5,2.82-1.39v-9.15h3.4v13.18h-3.4Z"/><path d="M308.13,46.57v-1.16c-1.06,.93-2.41,1.45-3.82,1.48-2.77,0-4.69-1.97-4.69-4.74v-8.75h3.37v8.14c-.07,1.26,.9,2.33,2.16,2.39,.05,0,.11,0,.16,0,1,0,1.95-.5,2.82-1.39v-9.15h3.4v13.18h-3.4Z"/><path d="M318.56,33.39v1.05c1.04-.89,2.37-1.38,3.74-1.37,1.5-.05,2.92,.71,3.72,1.98,1.13-1.23,2.71-1.94,4.37-1.98,2.61,0,4.37,1.9,4.37,4.61v8.88h-3.37v-8.36c.08-1.13-.77-2.1-1.9-2.18-.05,0-.1,0-.15,0-1.03,.06-2,.55-2.66,1.35v9.2h-3.37v-8.36c.07-1.14-.8-2.12-1.94-2.18-.05,0-.1,0-.15,0-1.03,.06-2,.55-2.66,1.35v9.2h-3.39v-13.18h3.38Z"/></g></svg>